<?xml version="1.0" encoding="UTF-8"?>
<!DOCTYPE svg PUBLIC "-//W3C//DTD SVG 1.1//EN" "http://www.w3.org/Graphics/SVG/1.1/DTD/svg11.dtd">
<!-- Creator: CorelDRAW X7 -->
<svg xmlns="http://www.w3.org/2000/svg" xml:space="preserve" width="200px" height="200px" version="1.1" style="shape-rendering:geometricPrecision; text-rendering:geometricPrecision; image-rendering:optimizeQuality; fill-rule:evenodd; clip-rule:evenodd"
viewBox="0 0 200 200"
 xmlns:xlink="http://www.w3.org/1999/xlink">
 <defs>
  <style type="text/css">
   <![CDATA[
    .fil0 {fill:#00468C}
    .fil1 {fill:#FEFEFE}
   ]]>
  </style>
 </defs>
 <g id="Слой_x0020_1">
  <metadata id="CorelCorpID_0Corel-Layer"/>
  <rect class="fil0" width="200" height="200"/>
  <path class="fil1" d="M43 98l0 -7 -20 0c-2,0 -4,1 -4,3 0,3 2,4 4,4l20 0zm48 -17l-18 0 -1 2 21 37 14 0 3 -6 -19 -33zm29 24l8 15 57 -1c7,0 12,-3 13,-11 -1,-3 -1,-6 -4,-8 2,-3 4,-5 3,-9 0,-8 -6,-10 -13,-10l-46 0 0 9 39 0c2,1 3,1 3,3 0,2 -1,2 -3,2l-33 0 6 10 27 0c2,0 4,0 4,2 0,2 -2,2 -4,2l-34 0 -13 -22 -10 18zm8 -22l-1 -2 -18 0 -7 11 10 18 16 -27zm-58 4l-8 13 0 -19 -44 0c-10,0 -15,4 -15,14 0,5 2,10 7,12l-7 12 19 0 7 -11 14 0 0 11 29 1 8 -15 -10 -18z"/>
 </g>
</svg>
