<svg width="16" height="14" viewBox="0 0 16 14" xmlns="http://www.w3.org/2000/svg">
  <path d="M9.69408 0.943928C9.40118 0.651035 8.92631 0.651035 8.63342 0.943929C8.34052 1.23682 8.34052 1.7117 8.63342 2.00459L13.1864 6.55759H1.24708C0.832865 6.55759 0.497078 6.89337 0.497078 7.30759C0.497078 7.7218 0.832865 8.05759 1.24708 8.05759H13.1864L8.63342 12.6106C8.34052 12.9035 8.34052 13.3784 8.63342 13.6713C8.92631 13.9642 9.40118 13.9642 9.69408 13.6713L15.5274 7.83792C15.6681 7.69727 15.7471 7.5065 15.7471 7.30759C15.7471 7.10868 15.6681 6.91791 15.5274 6.77726L9.69408 0.943928Z" />
</svg>