<svg width="12" height="11" viewBox="0 0 12 11" xmlns="http://www.w3.org/2000/svg">
  <path d="M6.75 0.90448C6.75 0.490266 6.41421 0.15448 6 0.15448C5.58579 0.15448 5.25 0.490266 5.25 0.90448V4.65448H1.5C1.08579 4.65448 0.75 4.99027 0.75 5.40448C0.75 5.81869 1.08579 6.15448 1.5 6.15448H5.25V9.90448C5.25 10.3187 5.58579 10.6545 6 10.6545C6.41421 10.6545 6.75 10.3187 6.75 9.90448V6.15448H10.5C10.9142 6.15448 11.25 5.81869 11.25 5.40448C11.25 4.99027 10.9142 4.65448 10.5 4.65448H6.75V0.90448Z" />
</svg>
