<svg width="27" height="22" viewBox="0 0 27 22" xmlns="http://www.w3.org/2000/svg">
<path d="M4.71659 9.6673L0.499999 9.6673L6.74934 15.951L12.8613 9.66729L7.49102 9.6673C8.15029 5.74514 11.5291 2.76209 15.6083 2.76209C19.6875 2.76209 23.0663 5.74514 23.7256 9.66729L26.5 9.66729C25.827 4.21218 21.2121 1.00199e-06 15.6083 1.24694e-06C10.0045 1.49189e-06 5.38959 4.21218 4.71659 9.6673ZM24.2887 17.8154C25.5248 16.2134 26.2665 14.349 26.5 12.4294L23.7118 12.4294C23.5058 13.6309 23.0388 14.791 22.2971 15.8267L24.2887 17.8154ZM16.9818 19.2103L16.9818 22C18.8909 21.7652 20.7314 21.0056 22.3246 19.7627L20.3743 17.8154C19.3442 18.5336 18.1904 19.0169 16.9818 19.2103ZM10.8423 17.8016L8.89197 19.7489C10.4852 20.9918 12.3257 21.7652 14.2348 22L14.2348 19.2103C13.0399 19.0169 11.8724 18.5336 10.8423 17.8016Z"/>
</svg>
