<svg width="26" height="26" viewBox="0 0 26 26" xmlns="http://www.w3.org/2000/svg">
  <path d="M26 13.0022C26.0007 10.8401 25.4619 8.71189 24.4325 6.81044C23.403 4.90899 21.9155 3.29434 20.1045 2.11272C18.2935 0.931101 16.2163 0.219846 14.0611 0.0433709C11.9058 -0.133104 9.74055 0.230776 7.76142 1.10206C5.78229 1.97333 4.05181 3.32449 2.72669 5.03314C1.40157 6.7418 0.523684 8.75398 0.172538 10.8874C-0.178609 13.0209 0.00807875 15.2082 0.715691 17.2514C1.4233 19.2945 2.62949 21.1289 4.225 22.5883L4.3875 22.7383C6.76407 24.8399 9.82727 26 13 26C16.1727 26 19.2359 24.8399 21.6125 22.7383L21.775 22.5883C23.1077 21.3724 24.1718 19.8918 24.8993 18.2411C25.6268 16.5904 26.0017 14.8061 26 13.0022ZM2 13.0022C1.99934 11.2209 2.43142 9.46609 3.25909 7.88866C4.08675 6.31124 5.28522 4.95843 6.75145 3.94655C8.21768 2.93468 9.90778 2.29402 11.6764 2.07968C13.445 1.86534 15.2393 2.08373 16.9048 2.71607C18.5704 3.34841 20.0574 4.37577 21.238 5.70981C22.4186 7.04386 23.2575 8.64465 23.6824 10.3745C24.1074 12.1044 24.1058 13.9116 23.6778 15.6408C23.2497 17.3699 22.408 18.9692 21.225 20.3011C20.11 18.6844 18.5392 17.4358 16.7125 16.7142C17.6923 15.9426 18.4072 14.8849 18.7579 13.6882C19.1086 12.4916 19.0776 11.2153 18.6693 10.0371C18.2609 8.85883 17.4955 7.83709 16.4794 7.11395C15.4634 6.39081 14.2472 6.00222 13 6.00222C11.7528 6.00222 10.5366 6.39081 9.52058 7.11395C8.50452 7.83709 7.73909 8.85883 7.33073 10.0371C6.92238 11.2153 6.89139 12.4916 7.24209 13.6882C7.59278 14.8849 8.30773 15.9426 9.2875 16.7142C7.46076 17.4358 5.88999 18.6844 4.775 20.3011C2.98421 18.2919 1.99633 15.6935 2 13.0022ZM9 12.0024C9 11.2114 9.2346 10.4381 9.67412 9.78041C10.1136 9.12271 10.7384 8.6101 11.4693 8.30739C12.2002 8.00469 13.0044 7.92548 13.7804 8.0798C14.5563 8.23412 15.269 8.61503 15.8284 9.17436C16.3878 9.73368 16.7688 10.4463 16.9231 11.2221C17.0775 11.9979 16.9983 12.8021 16.6955 13.5329C16.3928 14.2637 15.8801 14.8883 15.2223 15.3278C14.5645 15.7672 13.7911 16.0018 13 16.0018C11.9401 15.9985 10.9246 15.5761 10.1752 14.8267C9.42578 14.0774 9.0033 13.0621 9 12.0024ZM6.2625 21.6884C6.98615 20.5583 7.98254 19.6283 9.15994 18.9842C10.3373 18.3401 11.6579 18.0025 13 18.0025C14.3421 18.0025 15.6627 18.3401 16.8401 18.9842C18.0175 19.6283 19.0138 20.5583 19.7375 21.6884C17.8111 23.1863 15.4404 23.9996 13 23.9996C10.5596 23.9996 8.18889 23.1863 6.2625 21.6884Z" />
</svg>
